<?xml version="1.0" standalone="no"?>
<!DOCTYPE svg PUBLIC "-//W3C//DTD SVG 20010904//EN"
 "http://www.w3.org/TR/2001/REC-SVG-20010904/DTD/svg10.dtd">
<svg version="1.0" xmlns="http://www.w3.org/2000/svg"
 width="320.000000pt" height="320.000000pt" viewBox="0 0 320.000000 320.000000"
 preserveAspectRatio="xMidYMid meet">
<metadata>
Created by potrace 1.14, written by Peter Selinger 2001-2017
</metadata>
<g transform="translate(0.000000,320.000000) scale(0.100000,-0.100000)"
fill="#000000" stroke="none">
<path d="M2102 3150 c-282 -74 -512 -353 -512 -620 0 -91 4 -94 98 -80 283 41
532 345 532 651 0 81 2 80 -118 49z"/>
<path d="M2115 2413 c-80 -7 -181 -35 -309 -86 -174 -69 -212 -69 -383 -4
-171 65 -233 79 -343 80 -454 2 -782 -431 -757 -997 12 -270 79 -518 212 -789
85 -171 175 -299 289 -413 131 -130 203 -169 316 -168 60 0 93 6 165 33 192
71 244 83 350 84 96 1 106 -1 251 -51 84 -29 180 -57 214 -63 205 -33 407 136
608 511 47 88 146 311 140 315 -2 0 -36 21 -77 44 -84 50 -185 146 -235 223
-143 225 -140 535 6 754 49 73 152 177 195 197 31 14 29 24 -14 77 -139 170
-397 274 -628 253z"/>
</g>
</svg>
